<?xml version="1.0" encoding="UTF-8"?>
<svg width="100" height="100" viewBox="0 0 100 100" xmlns="http://www.w3.org/2000/svg">
  <g fill="#8B4513">
    <circle cx="50" cy="50" r="25">
      <animate attributeName="opacity" values="0.6;0.8;0.6" dur="3s" repeatCount="indefinite"/>
    </circle>
    <path d="M50 15 Q55 25 50 35 Q45 25 50 15" transform="rotate(0 50 50)"/>
    <path d="M50 15 Q55 25 50 35 Q45 25 50 15" transform="rotate(45 50 50)"/>
    <path d="M50 15 Q55 25 50 35 Q45 25 50 15" transform="rotate(90 50 50)"/>
    <path d="M50 15 Q55 25 50 35 Q45 25 50 15" transform="rotate(135 50 50)"/>
    <path d="M50 15 Q55 25 50 35 Q45 25 50 15" transform="rotate(180 50 50)"/>
    <path d="M50 15 Q55 25 50 35 Q45 25 50 15" transform="rotate(225 50 50)"/>
    <path d="M50 15 Q55 25 50 35 Q45 25 50 15" transform="rotate(270 50 50)"/>
    <path d="M50 15 Q55 25 50 35 Q45 25 50 15" transform="rotate(315 50 50)"/>
  </g>
</svg>

